<svg width="110" height="80" viewBox="0 0 110 80" fill="none" xmlns="http://www.w3.org/2000/svg">
<path d="M102.826 0H7.17391C3.21915 0 0 2.3412 0 5.21739V74.7826C0 77.6588 3.21915 80 7.17391 80H102.826C106.781 80 110 77.6588 110 74.7826V5.21739C110 2.3412 106.781 0 102.826 0ZM105.217 74.7826C105.217 75.7422 104.143 76.5217 102.826 76.5217H7.17391C5.85683 76.5217 4.78261 75.7422 4.78261 74.7826V5.21739C4.78261 4.25951 5.85683 3.47826 7.17391 3.47826H102.826C104.143 3.47826 105.217 4.25951 105.217 5.21739V74.7826Z" fill="#5F5F5F"/>
<path d="M64.5651 13.9131H31.0869C29.7674 13.9131 28.6956 14.6926 28.6956 15.6522V64.3479C28.6956 65.31 29.7674 66.087 31.0869 66.087H64.5651C73.7952 66.087 81.3042 60.6242 81.3042 53.9131V50.4348C81.3042 46.0123 78.0454 42.1323 73.181 40C78.0454 37.8677 81.3042 33.9878 81.3042 29.5653V26.087C81.3042 19.3742 73.7952 13.9131 64.5651 13.9131ZM76.5216 50.4348V53.9131C76.5216 58.7076 71.1575 62.6087 64.5651 62.6087H33.4782V41.7392H64.5651C71.1575 41.7392 76.5216 45.6403 76.5216 50.4348ZM76.5216 29.5653C76.5216 34.3598 71.1575 38.2609 64.5651 38.2609H33.4782V17.3913H64.5651C71.1575 17.3913 76.5216 21.2925 76.5216 26.087V29.5653Z" fill="#5F5F5F"/>
</svg>
