<svg height="512pt" viewBox="0 -1 512 512" width="512pt" xmlns="http://www.w3.org/2000/svg"><path d="m452.171875 371.070312c-15.34375 4.128907-31.222656 6.222657-47.203125 6.222657-99.90625 0-181.183594-81.277344-181.183594-181.179688 0-67.625 37.25-129.152343 97.214844-160.578125l34.535156-18.101562-37.792968-9.597656c-20.472657-5.199219-41.640626-7.835938-62.910157-7.835938-68.066406 0-132.0625 26.507812-180.195312 74.636719-48.128907 48.132812-74.636719 112.128906-74.636719 180.195312 0 68.070313 26.507812 132.066407 74.636719 180.195313 48.132812 48.132812 112.128906 74.640625 180.195312 74.640625 86.5625 0 166.464844-43.378907 213.738281-116.039063l21.273438-32.699218zm0 0" fill="#ffb64f"/><path d="m489.839844 360.929688-21.269532 32.699218c-19.394531 29.804688-44.277343 54.691406-72.867187 73.664063-9.597656 1.105469-19.324219 1.660156-29.128906 1.660156-68.066407 0-132.054688-26.507813-180.195313-74.636719-48.128906-48.128906-74.636718-112.128906-74.636718-180.195312 0-68.070313 26.507812-132.066406 74.636718-180.195313 12.175782-12.175781 25.363282-22.964843 39.371094-32.292969 9.585938-1.085937 19.292969-1.632812 29.085938-1.632812 21.261718 0 42.4375 2.636719 62.914062 7.835938l37.785156 9.59375-34.53125 18.109374c-59.964844 31.425782-97.214844 92.953126-97.214844 160.574219 0 99.902344 81.277344 181.179688 181.179688 181.179688 15.976562 0 31.863281-2.101563 47.203125-6.222657zm0 0" fill="#ff9800"/><path d="m454.273438 221.148438 13.628906 79.457031-71.363282-37.519531-71.355468 37.519531 13.628906-79.457031-57.734375-56.28125 79.785156-11.589844 35.675781-72.296875 35.6875 72.296875 79.773438 11.589844zm0 0" fill="#ffb64f"/><path d="m454.273438 221.148438 13.628906 79.457031-71.363282-37.519531v-182.105469l35.6875 72.296875 79.773438 11.589844zm0 0" fill="#ff9800"/></svg>